{"title":"Santana Abraxas HDtracks 24-88","uid":8435910,"size":1126305884,"categoryP":"audio","categoryS":"flac","magnet":"?xt=urn:btih:524410aa387de3e90a7807f50c3ece80442c155c&amp;dn=Santana+Abraxas+HDtracks+24-88&amp;tr=udp%3A%2F%2Ftracker.openbittorrent.com%3A80&amp;tr=udp%3A%2F%2Fopen.demonii.com%3A1337&amp;tr=udp%3A%2F%2Ftracker.coppersurfer.tk%3A6969&amp;tr=udp%3A%2F%2Fexodus.desync.com%3A6969","seeders":1,"leechers":0,"uploader":null,"files":14,"time":1367629147,"description":"foobar2000 1.2.5 / Dynamic Range Meter 1.1.1\nlog date: 2013-05-04 00:50:45\n\n--------------------------------------------------------------------------------\nAnalyzed: Santana / Abraxas\n--------------------------------------------------------------------------------\n\nDR         Peak         RMS     Duration Track\n--------------------------------------------------------------------------------\nDR10      -2.39 dB   -17.22 dB      4:51 01-Singing Winds, Crying Beasts\nDR11      -1.41 dB   -15.94 dB      5:20 02-Black Magic Woman/Gypsy Queen\nDR12      -1.59 dB   -15.60 dB      4:18 03-Oye Como Va\nDR10      -1.57 dB   -14.61 dB      5:01 04-Incident At Neshabur\nDR11      -1.77 dB   -14.91 dB      2:52 05-Se A Cabo\nDR11      -0.19 dB   -14.25 dB      4:29 06-Mother's Daughter\nDR10      -2.68 dB   -15.75 dB      4:48 07-Samba Pa Ti\nDR12      -0.66 dB   -15.54 dB      4:12 08-Hope You're Feeling Better\nDR12      -1.57 dB   -18.15 dB      1:43 09-El Nicoya\nDR10      -2.17 dB   -15.38 dB      3:48 10-Se A Cabo\nDR11      -1.99 dB   -14.78 dB      4:53 11-Toussaint L'Overture\nDR10      -1.83 dB   -14.30 dB      4:57 12-Black Magic Woman/Gypsy Queen\n--------------------------------------------------------------------------------\n\nNumber of tracks:  12\nOfficial DR value: DR11\n\nSamplerate:        88200 Hz\nChannels:          2\nBits per sample:   24\nBitrate:           3057 kbps\nCodec:             FLAC\n================================================================================","torrent":{"xt":"urn:btih:524410aa387de3e90a7807f50c3ece80442c155c","amp;dn":"Santana+Abraxas+HDtracks+24-88","amp;tr":["udp%3A%2F%2Ftracker.openbittorrent.com%3A80","udp%3A%2F%2Fopen.demonii.com%3A1337","udp%3A%2F%2Ftracker.coppersurfer.tk%3A6969","udp%3A%2F%2Fexodus.desync.com%3A6969"],"infoHash":"524410aa387de3e90a7807f50c3ece80442c155c","infoHashBuffer":{"type":"Buffer","data":[82,68,16,170,56,125,227,233,10,120,7,245,12,62,206,128,68,44,21,92]},"announce":[],"urlList":[]}}